# xmcd
#
# Track frame offsets:
#	150
#	13022
#	27467
#	47582
#	66372
#	76820
#	89575
#	109495
#	131215
#	145160
#	160042
#	173747
#	187687
#	202270
#
# Disc length: 2921 seconds
#
# Revision: 0
# Processed by: cddbd v1.5.2PL0 Copyright (c) Steve Scherf et al.
# Submitted via: FairStars CD Ripper 1.60
#
DISCID=c20b670e
DTITLE=Ken Mullan - Tomorrow is Forever
DYEAR=1999
DGENRE=Folk
TTITLE0=Tomorrow Is Forever
TTITLE1=If You Love Me
TTITLE2=Good Friends
TTITLE3=Molly Darling
TTITLE4=Across The Bridge
TTITLE5=If You Didn't Love Me
TTITLE6=Till The Rivers All Run Dry
TTITLE7=Working Man
TTITLE8=Today I Started Loving You Again
TTITLE9=Could I Have This Dance
TTITLE10=I'm Beginning To Forget You
TTITLE11=Roll River Roll
TTITLE12=Don't Trade Your Love For Gold
TTITLE13=I'll Walk With God
EXTD=
EXTT0=
EXTT1=
EXTT2=
EXTT3=
EXTT4=
EXTT5=
EXTT6=
EXTT7=
EXTT8=
EXTT9=
EXTT10=
EXTT11=
EXTT12=
EXTT13=
PLAYORDER=
